<svg width="353" height="515" viewBox="0 0 353 515" fill="none" xmlns="http://www.w3.org/2000/svg">
<path d="M65.367 356.981C69.967 368.481 80.467 374.181 93.467 372.281C94.167 369.381 94.067 366.381 94.467 363.481C94.667 361.681 94.867 359.981 95.067 358.181C95.367 355.681 96.967 354.281 99.367 353.781C100.567 353.581 101.767 353.481 103.067 353.381C108.167 353.081 113.167 352.881 118.267 352.681C118.967 352.681 119.567 352.481 120.367 352.381C120.367 351.681 120.267 351.181 120.267 350.381C119.467 350.481 118.867 350.481 118.267 350.581C114.967 351.081 111.767 351.581 108.467 351.181C103.767 350.581 100.167 348.381 97.667 344.481C96.567 342.781 95.667 340.881 94.767 339.081C94.067 337.781 93.467 336.381 92.867 334.881C91.767 334.481 90.667 334.081 89.467 333.681C78.967 330.081 68.767 325.781 59.067 320.281C51.367 315.981 44.267 310.881 38.067 304.581C37.567 304.081 37.067 303.681 36.867 303.481C33.467 303.481 30.567 303.481 27.467 303.481C27.167 304.581 26.867 305.581 26.667 306.681C24.867 316.881 23.067 327.181 21.167 337.381C20.767 339.481 20.767 341.481 21.167 343.481C21.367 344.281 21.467 345.081 21.567 345.881C22.167 348.881 21.567 351.581 19.767 354.081C18.667 355.481 17.767 357.081 16.867 358.581C15.867 360.281 14.367 361.081 12.367 360.781C9.76702 360.381 7.26703 359.881 4.66703 359.281C3.06703 358.981 2.06703 357.881 1.66703 356.281C1.16703 353.781 0.567027 351.181 0.167027 348.681C-0.232973 346.681 0.0670331 344.781 1.26703 343.181C4.36703 338.881 5.26703 333.981 6.06703 328.981C7.46703 320.981 9.06703 313.081 10.567 305.181C10.867 303.681 11.067 302.281 11.267 300.781C9.76703 299.781 8.26703 299.681 6.86703 299.181C3.46703 298.181 2.46703 296.481 3.06703 292.981C3.36703 291.181 3.66703 289.481 4.06703 287.781C4.86703 284.581 5.96703 283.681 9.16703 283.581C10.367 283.481 11.567 283.481 13.067 283.381C12.967 282.581 12.967 281.781 12.667 281.381C11.367 279.281 11.167 277.081 11.467 274.681C13.067 260.381 15.167 246.181 18.267 232.081C18.767 229.981 19.267 227.781 20.167 225.781C22.067 221.181 25.167 219.181 30.167 219.681C33.167 219.981 36.167 220.581 38.967 221.381C43.367 222.681 45.467 225.581 45.567 230.181C45.567 232.781 45.267 235.381 45.067 237.981C44.967 239.481 44.667 240.881 44.467 242.381C45.067 242.681 45.367 242.981 45.767 243.081C50.567 243.681 54.967 245.481 59.267 247.781C63.567 249.981 67.667 252.281 71.967 254.581C82.067 259.881 92.667 263.981 103.967 265.981C107.467 266.581 111.067 266.881 114.567 267.181C115.467 267.281 116.467 267.081 117.567 267.081C118.167 265.181 117.767 263.481 117.967 261.681C118.067 260.081 118.267 258.381 118.367 256.481C117.567 255.781 116.767 254.881 115.867 254.081C104.267 243.681 96.767 230.881 93.767 215.581C91.967 206.381 92.267 197.281 95.167 188.381C95.367 187.881 95.467 187.381 95.667 186.781C95.667 186.681 95.667 186.481 95.767 186.081C95.167 184.981 94.567 183.681 93.867 182.381C89.567 173.981 86.867 165.181 86.567 155.681C86.267 145.181 88.767 135.281 93.767 126.081C94.467 124.781 95.267 123.481 96.167 121.881C95.567 120.981 94.967 119.881 94.267 118.881C87.667 108.881 82.267 98.281 78.267 87.081C77.167 83.881 76.367 80.481 75.667 77.181C74.767 72.981 75.367 68.781 76.467 64.581C79.467 53.781 91.467 45.781 104.067 49.681C108.567 51.081 112.667 53.281 116.367 56.181C123.767 61.981 129.967 68.881 135.467 76.481C136.467 77.781 137.367 79.081 138.467 80.681C139.367 80.281 140.167 79.881 140.967 79.481C148.467 74.781 156.667 71.681 165.467 70.381C171.367 69.481 177.167 69.581 183.067 70.081C183.967 70.181 184.867 70.081 186.067 70.081C185.667 68.281 185.367 66.681 185.067 65.081C183.767 58.881 182.867 52.681 182.967 46.381C183.067 42.481 183.567 38.781 184.667 34.981C185.667 31.381 187.267 28.081 189.767 25.281C194.767 19.681 201.067 17.781 208.367 19.581C212.067 20.481 215.267 22.181 218.267 24.381C221.867 26.981 224.967 30.081 227.767 33.481C232.667 39.481 236.667 45.981 240.067 52.881C244.867 62.581 248.867 72.681 252.267 82.981C252.967 85.081 253.367 87.181 253.867 89.281C275.267 105.581 284.367 132.381 279.267 154.781C293.967 175.481 295.267 198.181 288.367 222.081C312.167 240.381 324.067 264.381 323.867 294.881C324.167 295.181 324.667 295.781 325.267 296.381C335.767 306.781 341.767 319.481 344.167 333.881C346.967 351.181 344.567 367.781 336.567 383.381C335.567 385.281 335.567 386.881 336.067 388.881C344.767 420.681 327.567 457.781 294.967 471.881C286.167 475.681 276.967 477.481 267.367 476.881C265.167 476.781 262.967 476.381 260.867 476.081C259.667 475.881 258.767 476.281 257.867 476.981C246.067 486.681 232.767 494.181 219.467 501.381C210.767 506.081 201.767 509.981 192.167 512.581C186.567 514.081 180.967 514.981 175.167 514.781C158.767 514.181 145.067 502.281 142.267 486.081C141.067 479.181 142.767 473.081 147.367 467.681C148.467 466.481 149.567 465.281 150.867 463.881C149.867 463.081 148.967 462.281 147.967 461.481C147.067 460.781 146.267 460.181 145.267 459.481C141.767 461.281 138.367 462.981 134.967 464.681C134.367 466.381 134.567 467.981 134.467 469.681C134.267 475.581 134.067 481.481 133.767 487.281C133.667 488.481 133.367 489.681 133.167 490.881C132.267 494.881 129.567 496.881 125.567 497.281C122.967 497.581 120.367 497.881 117.767 497.981C111.067 498.181 104.367 498.281 97.667 498.381C91.667 498.481 89.367 496.281 89.267 490.381C89.167 488.181 88.967 485.981 88.867 483.781C88.767 481.581 88.667 479.381 88.667 477.381C87.567 476.381 86.467 476.781 85.467 476.781C80.967 476.881 76.367 476.881 71.967 475.981C60.267 473.381 51.167 467.181 45.267 456.481C42.467 451.481 41.367 445.981 42.067 440.181C42.867 433.681 45.967 428.581 51.067 424.581C54.267 422.081 57.767 420.281 61.567 419.181C66.367 417.781 71.367 416.481 76.167 415.181C81.767 413.681 87.267 412.281 92.867 410.881C93.567 410.681 94.167 410.381 95.067 410.081C94.467 405.981 93.867 401.781 93.267 397.381C91.867 397.381 90.567 397.281 89.167 397.281C84.367 397.281 79.567 396.781 74.967 395.481C67.067 393.381 60.467 389.181 55.067 383.081C51.167 378.581 48.067 373.581 45.767 368.181C45.267 367.081 44.867 365.881 44.367 364.781C43.267 364.381 42.267 363.981 41.267 363.581C36.467 361.681 32.767 358.381 30.767 353.681C29.267 350.181 28.267 346.481 27.067 342.781C26.767 341.881 26.867 340.881 26.867 339.881C26.967 337.781 27.967 336.081 29.967 335.481C32.867 334.581 35.767 333.781 38.667 333.281C41.067 332.781 43.267 334.281 44.167 336.581C44.767 338.281 45.167 339.981 45.767 341.681C46.167 342.881 46.567 344.081 48.067 344.181C49.067 344.281 50.267 342.981 50.367 341.181C50.467 339.581 50.367 337.881 50.167 336.281C49.467 331.581 50.167 330.381 54.867 329.281C57.767 328.581 60.767 328.181 63.767 327.881C66.167 327.681 67.267 328.581 68.067 330.881C68.367 331.781 68.667 332.681 68.767 333.681C69.067 335.681 69.367 337.781 69.467 339.781C69.267 345.781 68.767 351.781 65.367 356.981ZM170.967 351.681C177.767 351.981 184.467 352.181 190.667 352.481C195.667 348.181 200.367 344.081 204.967 340.081C209.167 336.481 213.367 332.981 217.467 329.381C230.267 318.081 241.367 305.281 252.167 292.081C253.067 290.981 253.867 289.881 254.967 289.081C257.467 287.081 260.867 287.681 262.467 290.281C263.567 292.081 263.567 293.981 262.667 295.781C262.067 296.981 261.267 298.181 260.367 299.181C248.167 314.081 235.467 328.381 220.867 340.881C216.267 344.781 211.567 348.581 207.067 352.581C204.367 354.881 201.667 357.281 199.267 359.881C197.467 361.781 195.867 363.881 194.567 366.081C191.167 372.081 191.867 377.681 196.667 382.681C201.867 388.181 208.367 390.581 215.967 389.981C222.067 389.481 227.767 387.481 232.967 384.281C237.167 381.681 241.267 378.981 245.067 375.881C252.067 370.181 258.767 364.081 265.567 358.081C266.567 357.181 267.567 356.181 268.767 355.481C270.867 354.181 273.667 354.581 275.267 356.081C277.067 357.881 277.367 360.581 275.867 362.881C275.267 363.781 274.467 364.581 273.667 365.381C264.467 373.981 255.067 382.481 244.767 389.681C243.967 390.181 243.367 390.881 242.567 391.581C244.267 396.581 244.467 401.681 244.567 406.781C245.967 407.881 247.267 408.781 248.467 409.881C249.767 411.081 250.967 412.281 252.167 413.481C259.067 412.381 261.667 415.581 259.467 421.981C258.367 425.281 257.667 428.581 257.067 431.981C255.967 439.281 256.267 446.481 258.167 453.581C259.167 457.181 260.667 460.481 262.967 463.481C264.267 465.181 265.767 465.881 267.867 465.981C274.267 466.181 280.467 465.281 286.467 463.181C315.767 453.181 333.667 419.481 324.667 389.981C323.467 386.181 323.767 382.881 325.767 379.381C329.867 372.181 332.367 364.281 333.267 356.081C335.567 335.381 330.967 316.881 315.267 302.181C312.867 299.981 311.967 297.381 312.267 294.081C312.567 290.581 312.567 286.981 312.167 283.381C310.667 269.481 305.367 256.881 297.067 245.681C293.467 240.981 289.467 236.681 284.667 233.181C283.167 232.081 281.567 231.181 279.567 230.881C276.367 230.481 274.667 227.781 275.367 224.581C275.567 223.681 275.867 222.781 276.267 221.881C278.767 215.881 280.367 209.681 280.967 203.181C282.267 187.481 279.767 172.881 269.367 160.381C267.667 158.281 267.167 156.181 267.967 153.481C270.267 145.781 270.167 137.981 268.167 130.381C264.067 114.181 255.267 101.481 240.067 93.881C239.167 93.481 238.367 92.981 237.567 92.381C234.667 89.981 234.767 86.181 237.867 83.981C238.667 83.481 239.467 83.081 240.267 82.581C240.167 81.981 240.167 81.581 240.067 81.181C236.867 72.381 233.467 63.781 229.167 55.481C226.567 50.481 223.567 45.681 220.167 41.281C217.967 38.481 215.567 35.881 212.767 33.681C210.667 32.081 208.467 30.781 205.967 29.981C202.667 28.981 199.967 29.781 197.867 32.481C196.767 33.981 195.767 35.781 195.267 37.481C193.867 41.781 193.467 46.381 193.967 50.881C194.367 54.581 194.767 58.281 195.567 61.881C196.267 65.181 197.367 68.481 198.267 71.781C198.667 73.281 199.567 74.381 201.167 74.981C202.167 75.381 203.167 75.881 204.067 76.581C206.167 78.181 206.867 80.981 205.767 83.181C204.767 85.381 202.067 86.581 199.567 85.881C198.167 85.481 196.767 84.881 195.367 84.281C186.667 80.781 177.667 79.581 168.367 80.781C155.067 82.581 143.967 88.681 134.967 98.481C130.867 104.481 125.167 108.681 119.467 112.981C112.667 117.981 107.167 124.281 103.167 131.781C97.367 142.481 95.967 153.781 99.067 165.581C100.567 171.181 102.767 176.481 105.967 181.281C107.567 183.681 107.967 185.981 106.767 188.681C106.567 189.081 106.467 189.481 106.367 189.881C104.167 195.481 103.367 201.281 103.867 207.181C105.267 224.081 112.867 237.681 126.167 248.181C127.067 248.881 127.967 249.481 128.767 250.181C131.467 252.481 131.967 254.581 130.267 257.781C129.467 259.281 129.067 260.881 129.067 262.481C129.067 264.381 129.267 266.281 129.367 268.181C129.467 269.781 129.867 271.481 129.867 273.081C129.967 277.181 127.067 279.681 123.167 278.581C121.167 277.981 119.167 277.981 117.067 277.981C111.967 278.081 106.967 277.481 101.967 276.581C90.167 274.381 78.967 270.281 68.367 264.781C63.967 262.481 59.667 260.081 55.267 257.881C52.867 256.681 50.267 255.581 47.767 254.681C46.067 254.081 44.367 253.681 42.667 254.381C42.467 254.781 42.367 254.981 42.267 255.281C40.167 264.081 38.067 272.881 35.867 281.581C35.667 282.581 35.867 283.481 36.367 284.281C37.567 286.281 38.767 288.281 40.167 290.181C45.567 297.581 52.367 303.481 60.167 308.281C68.167 313.281 76.767 317.281 85.567 320.681C86.167 320.881 86.767 320.981 87.767 321.281C87.567 320.081 87.367 319.281 87.267 318.581C86.667 316.281 85.967 314.081 85.567 311.781C84.167 304.281 86.867 298.281 93.467 294.281C94.967 293.381 96.567 292.581 98.267 291.881C100.567 290.981 102.867 290.081 105.167 289.381C118.167 285.581 131.167 281.681 144.167 277.981C152.167 275.681 160.267 273.781 168.467 271.781C171.767 270.981 175.167 270.381 178.567 270.181C187.167 269.481 192.967 273.381 196.067 281.481C196.767 283.381 197.367 285.381 197.867 287.381C198.967 292.581 200.067 297.781 201.067 303.081C201.867 307.281 202.367 311.481 202.267 315.781C202.067 320.681 199.967 324.481 196.067 327.281C194.767 328.281 193.267 329.081 191.867 329.781C189.667 330.781 187.367 331.681 184.967 332.481C180.567 333.881 176.067 335.181 171.567 336.481C170.667 336.781 169.867 337.281 169.267 337.581C169.367 342.081 170.167 346.681 170.967 351.681ZM242.067 437.281C236.767 439.881 231.967 442.481 226.967 444.781C215.667 449.981 204.067 454.481 192.267 458.581C184.867 461.081 177.467 463.481 170.067 466.081C167.067 467.081 164.167 468.281 161.367 469.681C158.667 470.981 156.267 472.881 154.467 475.381C152.667 477.781 151.967 480.481 152.367 483.481C153.367 490.881 159.567 500.881 170.367 503.181C175.767 504.281 180.967 503.781 186.267 502.581C194.467 500.681 202.167 497.581 209.667 493.781C221.267 487.881 232.467 481.381 243.267 473.981C245.667 472.381 247.867 470.581 250.067 468.781C250.767 468.181 251.267 467.381 251.867 466.681C249.267 461.781 247.267 456.781 246.567 451.381C246.067 447.481 245.867 443.481 245.467 439.581C245.467 439.181 245.267 438.781 245.167 438.381C244.067 437.881 243.067 437.581 242.067 437.281ZM204.067 399.681C203.867 400.381 203.467 401.081 203.367 401.781C203.167 404.081 203.267 406.481 203.067 408.781C202.667 413.381 200.667 415.781 196.167 416.781C194.567 417.181 192.967 417.381 191.267 417.481C183.167 417.581 175.067 417.681 167.067 417.781C159.967 417.781 152.867 417.781 145.667 417.781C137.567 417.781 129.467 417.681 121.467 417.481C119.467 417.481 117.367 417.081 115.367 416.581C112.367 415.781 110.367 413.781 109.767 410.681C109.467 409.081 109.367 407.381 109.267 405.781C109.067 400.981 108.867 396.181 108.767 391.381C108.667 386.481 108.467 381.481 108.767 376.581C109.167 369.781 111.967 366.981 118.767 366.481C124.267 366.081 129.667 365.781 135.167 365.781C149.667 365.681 164.167 365.781 178.767 365.781C180.067 365.781 181.467 365.681 182.767 365.681C183.567 363.981 184.267 362.481 184.867 360.981C184.967 360.781 184.867 360.481 184.867 360.181C181.467 359.081 176.867 358.881 157.567 359.081C148.267 359.181 138.967 359.081 129.667 359.481C120.567 359.881 111.367 359.681 102.067 360.881C101.867 362.681 101.667 364.381 101.567 365.981C101.167 373.481 100.667 380.981 100.367 388.581C100.267 391.981 100.267 395.481 100.467 398.881C101.067 409.781 105.467 418.681 114.167 425.381C119.967 429.881 126.167 433.681 132.867 436.381C142.167 439.981 151.767 441.781 161.767 440.781C176.167 439.381 188.567 433.381 199.667 424.481C206.367 419.181 210.367 412.081 211.767 403.581C211.867 402.781 211.867 401.981 211.867 401.081C209.167 400.581 206.767 400.181 204.067 399.681ZM181.467 371.481C179.767 371.381 178.567 371.281 177.367 371.281C170.667 371.281 163.967 371.281 157.267 371.281C146.767 371.281 136.167 371.381 125.667 371.481C122.967 371.481 120.267 371.981 117.467 372.181C115.767 372.381 114.767 373.481 114.467 375.081C114.267 376.381 114.167 377.781 114.167 379.181C114.367 388.081 114.567 396.981 114.767 405.881C114.767 406.681 114.867 407.481 114.967 408.381C115.267 410.481 115.867 411.181 118.067 411.581C119.367 411.781 120.767 411.881 122.167 411.981C132.467 412.081 142.667 412.181 152.967 412.281C155.067 412.281 157.067 412.181 159.167 412.281C169.867 412.681 180.567 412.381 191.167 411.981C192.367 411.981 193.667 411.881 194.867 411.581C196.467 411.281 197.467 410.281 197.667 408.581C198.067 404.781 198.167 400.981 197.967 397.281C188.067 391.381 181.467 383.681 181.467 371.481ZM111.667 460.381C112.567 452.081 114.667 444.481 117.767 436.981C115.267 435.281 112.867 433.681 110.667 431.881C108.567 430.181 106.467 428.381 104.567 426.481C102.567 424.481 100.867 422.181 99.067 420.081C96.067 420.881 93.367 421.681 90.567 422.381C83.167 424.281 75.667 426.081 68.367 428.081C65.367 428.881 62.367 429.981 59.567 431.481C53.467 434.681 51.167 439.781 52.567 446.581C52.867 448.081 53.367 449.481 54.067 450.781C55.567 453.881 57.667 456.581 60.367 458.781C65.767 463.381 72.167 465.681 79.167 465.781C82.867 465.881 86.567 465.581 90.167 465.081C97.467 464.281 104.367 462.481 111.667 460.381ZM194.467 313.581C194.467 313.181 194.367 312.781 194.367 312.381C193.467 303.681 191.767 295.081 189.567 286.581C189.267 285.281 188.667 283.981 188.167 282.681C186.567 278.981 183.767 277.281 179.767 277.181C178.667 277.181 177.567 277.281 176.467 277.481C173.467 277.981 170.567 278.481 167.567 279.181C150.367 283.381 133.367 287.881 116.467 293.181C111.467 294.681 106.567 296.281 101.667 297.981C99.667 298.681 97.667 299.781 95.767 300.881C92.967 302.581 91.567 305.181 91.867 308.481C92.067 310.481 92.367 312.581 92.967 314.481C95.167 321.781 97.767 328.981 100.967 336.081C101.667 337.681 102.567 339.281 103.467 340.781C104.567 342.681 106.367 343.781 108.467 344.081C109.767 344.281 111.167 344.381 112.567 344.181C114.567 343.981 116.667 343.581 118.667 343.081C126.867 341.081 135.167 339.181 143.367 336.881C156.367 333.181 169.367 329.281 182.367 325.381C184.867 324.681 187.267 323.481 189.567 322.381C193.167 320.481 194.767 317.481 194.467 313.581ZM129.367 87.581C128.667 86.481 128.167 85.481 127.567 84.581C122.967 77.881 117.767 71.781 111.567 66.581C109.667 64.981 107.767 63.481 105.567 62.281C103.567 61.181 101.367 60.281 99.167 59.781C93.567 58.581 88.367 61.681 86.667 67.181C85.867 69.681 85.467 72.281 85.967 74.881C86.467 77.381 86.967 79.981 87.767 82.381C91.167 92.381 95.967 101.681 101.567 110.681C101.967 111.281 102.567 111.781 103.067 112.281C103.567 111.981 103.767 111.881 103.967 111.681C108.567 106.981 113.667 102.881 119.167 99.281C119.767 98.881 120.367 98.581 120.767 98.081C123.567 94.581 126.367 91.181 129.367 87.581ZM27.367 226.881C25.667 228.881 25.367 231.381 24.867 233.781C23.667 239.981 22.367 246.081 21.467 252.381C20.367 259.181 19.767 265.981 18.667 272.681C18.367 274.881 18.067 276.981 19.367 278.981C19.767 279.581 19.867 280.281 19.967 280.881C21.067 285.181 18.867 288.881 14.567 289.981C13.467 290.281 12.367 290.181 11.367 290.581C10.867 290.781 10.567 291.481 10.167 291.881C11.567 293.481 13.367 293.281 14.867 293.681C16.567 294.081 18.367 294.381 20.067 294.681C21.667 294.981 23.267 295.181 24.867 295.481C27.567 295.981 27.967 295.981 29.867 295.381C29.267 293.581 27.667 292.681 26.367 291.481C23.567 288.781 23.167 285.481 25.267 282.181C25.867 281.281 26.567 280.381 27.367 279.681C28.467 278.681 29.067 277.581 29.367 276.181C32.567 263.581 35.267 250.881 37.467 238.081C37.867 235.681 38.067 233.181 38.267 230.781C38.367 229.481 37.867 228.281 36.467 227.881C33.567 227.281 30.567 226.181 27.367 226.881ZM126.167 475.481C125.467 475.381 124.667 475.081 123.867 475.081C115.667 475.081 107.467 475.081 99.267 475.081C98.067 475.081 96.867 475.481 95.867 475.581C94.967 480.081 95.267 487.481 96.367 490.981C96.967 491.081 97.667 491.281 98.267 491.281C106.167 490.981 114.067 490.681 121.967 490.381C123.167 490.281 124.467 490.281 125.367 489.381C126.767 485.081 127.067 479.381 126.167 475.481ZM16.667 301.681C16.367 302.981 16.067 304.081 15.867 305.281C13.967 315.481 11.967 325.681 10.167 335.981C9.76703 338.381 8.96703 340.381 7.76703 342.481C5.06703 347.181 5.06703 347.181 6.36703 352.481C6.46703 352.981 6.66703 353.481 6.96703 354.181C8.66703 354.481 10.367 354.781 11.867 355.081C15.367 351.581 16.767 347.881 15.367 343.281C14.867 341.681 14.867 340.081 15.167 338.381C17.167 327.381 19.167 316.281 21.167 305.281C21.367 304.381 21.267 303.381 21.367 302.481C19.767 301.781 18.367 301.481 16.667 301.681ZM214.967 437.881C214.767 436.081 214.467 434.181 214.367 432.281C213.867 424.281 214.967 416.681 220.367 410.381C220.767 409.881 221.267 409.181 221.267 408.581C221.367 407.381 221.267 406.081 221.167 404.881C221.067 403.781 220.767 402.681 219.567 401.381C219.167 403.681 218.867 405.581 218.367 407.381C216.267 416.181 211.867 423.581 204.967 429.381C201.567 432.181 197.867 434.481 194.367 436.981C193.567 437.481 192.667 438.081 192.367 438.881C191.367 441.381 190.767 444.081 191.167 446.781C194.767 446.381 210.267 440.481 214.967 437.881ZM246.967 429.481C248.367 429.781 249.267 429.381 249.967 427.981C249.467 425.981 248.967 423.681 248.167 421.581C246.467 417.081 243.367 413.981 238.967 412.181C236.567 411.181 233.967 410.781 231.367 411.581C227.067 412.881 224.367 415.781 222.867 419.881C221.367 423.881 220.867 428.081 221.367 432.381C221.467 433.181 221.767 433.881 222.067 434.581C223.767 434.681 224.967 434.381 226.067 433.581C226.167 432.281 226.167 431.181 226.267 430.081C226.467 427.781 227.067 425.481 228.467 423.581C231.467 419.281 237.267 418.181 241.567 421.081C243.467 422.381 244.767 424.081 245.667 426.081C246.067 427.281 246.467 428.381 246.967 429.481ZM33.967 341.481C33.867 342.081 33.767 342.481 33.867 342.881C34.567 345.081 35.167 347.281 36.067 349.481C38.867 356.581 45.767 358.981 52.167 357.381C56.267 356.381 59.667 354.081 61.067 349.681C62.167 346.281 62.167 339.481 60.967 335.481C59.567 335.181 58.367 335.381 57.267 336.381C57.167 338.481 57.067 340.481 56.867 342.481C56.567 344.981 55.467 347.181 53.567 348.881C50.267 351.981 45.367 352.181 41.967 349.281C40.467 347.981 39.467 346.381 38.767 344.581C38.267 343.381 37.767 342.081 37.267 340.681C35.967 340.981 34.967 341.181 33.967 341.481ZM145.667 343.881C146.567 346.781 147.267 349.181 147.967 351.481C154.967 351.981 160.167 351.781 162.967 351.081C163.367 348.281 162.867 345.481 162.067 342.681C161.767 341.581 161.767 340.181 160.367 339.581C155.567 340.881 150.667 341.981 145.667 343.881ZM149.367 447.781C151.667 450.881 153.767 452.781 157.067 454.781C161.667 457.481 162.067 457.581 166.967 455.481C167.167 455.381 167.367 455.081 167.867 454.681C167.567 452.381 169.067 449.981 168.067 447.181C161.967 448.081 155.967 448.881 149.367 447.781ZM228.467 404.481C231.567 404.281 234.367 404.081 237.267 403.881C237.267 403.081 237.467 402.381 237.367 401.681C237.167 400.081 236.867 398.481 236.567 396.781C232.867 396.081 230.067 397.581 227.267 399.581C227.667 401.381 227.967 402.881 228.467 404.481ZM66.967 371.981C65.767 373.081 64.667 374.081 63.567 375.081C62.467 376.181 60.767 376.781 59.967 378.381C60.767 379.281 61.467 380.081 62.267 380.781C63.067 381.481 63.967 382.081 64.867 382.781C67.767 380.781 69.667 378.181 70.767 374.981C69.467 373.881 68.267 372.981 66.967 371.981ZM81.867 379.181C80.067 378.781 78.867 377.881 77.567 378.281C75.567 381.281 73.767 383.981 71.867 386.781C74.167 388.081 76.467 388.981 79.167 388.681C80.467 385.781 81.167 382.681 81.867 379.181ZM62.067 366.181C61.267 364.681 60.767 363.181 59.367 362.281C57.267 362.981 55.367 363.581 53.467 364.281C52.867 364.481 52.367 364.881 51.767 365.281C52.367 366.581 52.867 367.781 53.467 368.781C54.067 369.781 54.767 370.781 55.367 371.781C58.467 370.781 60.267 368.581 62.067 366.181ZM92.767 389.381C92.967 386.281 93.567 383.081 92.767 379.781C91.467 379.881 90.467 380.081 89.267 380.181C88.367 383.481 87.267 386.481 86.967 389.781C89.867 390.281 89.867 390.281 92.767 389.381ZM122.367 446.081C124.867 447.481 127.467 447.981 130.367 447.881C130.867 446.481 131.867 445.381 131.267 443.781C130.167 443.281 129.067 442.781 127.967 442.281C126.767 441.781 125.667 440.981 123.967 440.781C123.467 442.581 122.367 443.981 122.367 446.081ZM138.267 345.581C135.867 346.181 133.867 346.581 131.767 347.081C131.167 348.881 130.967 350.381 132.267 351.881C134.867 352.081 137.467 352.081 140.067 351.581C140.067 349.481 139.267 347.781 138.267 345.581ZM126.667 464.281C124.267 463.481 121.767 463.581 119.167 463.281C118.367 464.781 118.567 465.981 119.067 467.581C121.467 467.781 123.867 467.881 126.467 468.081C126.867 466.781 127.267 465.681 126.667 464.281ZM176.167 447.681C178.767 447.981 181.067 447.381 183.267 446.781C183.767 445.381 184.167 444.281 183.267 442.881C181.267 443.581 179.167 444.281 177.267 444.981C176.367 445.381 175.867 446.181 176.167 447.681ZM125.567 456.881C126.367 456.881 126.567 456.881 126.667 456.881C127.567 456.881 128.367 456.381 128.067 455.881C127.867 455.481 127.467 454.981 126.967 454.881C124.967 454.381 122.967 453.981 120.967 453.681C120.667 453.681 119.967 454.181 119.967 454.581C119.867 454.981 120.267 455.781 120.567 455.881C122.467 456.381 124.367 456.681 125.567 456.881ZM234.267 428.381C234.767 428.381 235.067 428.381 235.167 428.281C235.667 427.881 236.067 427.481 236.567 426.981C236.467 426.881 236.467 426.781 236.367 426.781C235.467 426.481 234.867 427.081 234.367 427.681C234.367 427.781 234.367 427.881 234.267 428.381Z" fill="black"/>
<path d="M352.567 30.581C352.467 35.681 351.467 39.781 349.767 43.681C345.767 52.681 339.267 59.281 330.567 63.781C328.367 64.881 326.067 65.881 323.767 66.681C321.467 67.481 320.167 68.981 319.567 71.281C319.067 73.281 318.467 75.281 317.767 77.181C317.267 78.481 316.767 79.781 315.967 80.881C313.967 83.881 310.467 84.881 307.267 83.681C304.067 82.481 302.267 79.381 303.067 75.681C304.067 70.881 305.467 66.081 307.667 61.681C309.367 58.281 312.067 55.781 315.567 54.281C317.167 53.581 318.867 52.981 320.467 52.281C323.267 51.081 325.867 49.681 328.267 47.881C331.767 45.181 334.467 41.781 336.267 37.581C339.267 30.381 337.167 23.181 330.767 18.781C325.767 15.481 320.267 14.081 314.367 15.081C307.767 16.181 302.267 19.281 298.467 24.981C297.767 25.981 296.967 26.981 296.067 27.681C293.867 29.381 291.367 29.781 288.767 28.481C286.367 27.281 285.167 25.281 284.967 22.581C284.867 20.881 285.067 19.281 285.967 17.781C287.067 15.881 288.267 13.981 289.667 12.381C303.467 -2.01895 322.767 -3.21896 337.367 5.48104C347.167 11.481 352.167 20.081 352.567 30.581Z" fill="black"/>
<path d="M305.367 110.981C301.467 110.981 298.267 108.781 296.767 105.181C294.767 100.381 297.067 94.081 301.667 91.781C307.967 88.581 315.467 93.481 315.567 100.681C315.467 106.281 310.867 110.981 305.367 110.981Z" fill="black"/>
<path d="M170.967 351.681C170.167 346.581 169.367 342.081 168.567 337.181C169.267 336.881 170.067 336.381 170.867 336.081C175.267 334.681 179.767 333.481 184.267 332.081C186.567 331.381 188.867 330.381 191.167 329.381C192.667 328.681 194.067 327.881 195.367 326.881C199.267 324.081 201.367 320.281 201.567 315.381C201.667 311.081 201.167 306.881 200.367 302.681C199.367 297.481 198.267 292.181 197.167 286.981C196.767 284.981 196.167 282.981 195.367 281.081C192.367 272.981 186.467 269.181 177.867 269.781C174.467 270.081 171.067 270.581 167.767 271.381C159.667 273.281 151.567 275.281 143.467 277.581C130.467 281.281 117.467 285.081 104.467 288.981C102.067 289.681 99.767 290.581 97.567 291.481C95.967 292.181 94.267 292.981 92.767 293.881C86.267 297.781 83.467 303.781 84.867 311.381C85.267 313.681 85.967 315.881 86.567 318.181C86.767 318.981 86.867 319.681 87.067 320.881C86.067 320.581 85.467 320.481 84.867 320.281C76.067 316.881 67.467 312.881 59.467 307.881C51.767 303.081 44.867 297.181 39.467 289.781C38.067 287.881 36.967 285.881 35.667 283.881C35.167 283.081 34.967 282.181 35.167 281.181C37.267 272.381 39.367 263.581 41.567 254.881C41.667 254.581 41.767 254.381 41.967 253.981C43.667 253.281 45.367 253.681 47.067 254.281C49.567 255.281 52.167 256.281 54.567 257.481C58.967 259.681 63.267 262.181 67.667 264.381C78.267 269.881 89.467 273.981 101.267 276.181C106.267 277.081 111.267 277.681 116.367 277.581C118.367 277.581 120.367 277.581 122.467 278.181C126.367 279.281 129.267 276.781 129.167 272.681C129.167 271.081 128.767 269.381 128.667 267.781C128.467 265.881 128.367 263.981 128.367 262.081C128.367 260.381 128.767 258.881 129.567 257.381C131.267 254.181 130.767 252.081 128.067 249.781C127.267 249.081 126.267 248.481 125.467 247.781C112.167 237.281 104.567 223.781 103.167 206.781C102.667 200.881 103.467 194.981 105.667 189.481C105.867 189.081 105.967 188.681 106.067 188.281C107.267 185.681 106.867 183.281 105.267 180.881C102.067 176.081 99.767 170.781 98.367 165.181C95.267 153.381 96.667 142.081 102.467 131.381C106.467 123.881 111.967 117.581 118.767 112.581C124.567 108.281 130.167 104.081 134.267 98.081C143.367 88.281 154.467 82.181 167.667 80.381C176.967 79.181 185.967 80.381 194.667 83.881C196.067 84.481 197.467 85.081 198.867 85.481C201.467 86.181 204.067 84.981 205.067 82.781C206.067 80.481 205.467 77.781 203.367 76.181C202.467 75.481 201.567 74.981 200.467 74.581C198.867 73.981 197.967 72.981 197.567 71.381C196.667 68.081 195.567 64.881 194.867 61.481C194.167 57.881 193.667 54.181 193.267 50.481C192.767 45.981 193.167 41.381 194.567 37.081C195.167 35.281 196.067 33.481 197.167 32.081C199.167 29.481 201.967 28.681 205.267 29.581C207.767 30.381 210.067 31.681 212.067 33.281C214.867 35.481 217.267 38.081 219.467 40.881C222.967 45.281 225.867 50.081 228.467 55.081C232.767 63.381 236.167 71.981 239.367 80.781C239.467 81.181 239.467 81.581 239.567 82.181C238.767 82.581 237.967 82.981 237.167 83.581C234.167 85.781 234.067 89.581 236.867 91.981C237.567 92.581 238.467 92.981 239.367 93.481C254.567 101.181 263.367 113.881 267.467 129.981C269.467 137.681 269.567 145.481 267.267 153.081C266.467 155.681 266.967 157.881 268.667 159.981C279.067 172.481 281.567 187.181 280.267 202.781C279.767 209.281 278.067 215.481 275.567 221.481C275.167 222.381 274.867 223.281 274.667 224.181C274.067 227.381 275.667 230.081 278.867 230.481C280.867 230.781 282.467 231.681 283.967 232.781C288.767 236.281 292.867 240.581 296.367 245.281C304.767 256.481 309.967 268.981 311.467 282.981C311.867 286.481 311.767 290.081 311.567 293.681C311.267 296.981 312.167 299.481 314.567 301.781C330.367 316.481 334.867 334.981 332.567 355.681C331.667 363.981 329.167 371.781 325.067 378.981C323.067 382.481 322.867 385.781 323.967 389.581C332.867 419.081 314.967 452.781 285.767 462.781C279.767 464.881 273.567 465.781 267.167 465.581C265.067 465.481 263.567 464.781 262.267 463.081C259.967 460.081 258.467 456.781 257.467 453.181C255.567 446.081 255.167 438.881 256.367 431.581C256.867 428.181 257.667 424.881 258.767 421.581C260.967 415.181 258.267 411.981 251.467 413.081C250.267 411.981 249.067 410.681 247.767 409.481C246.567 408.381 245.167 407.481 243.867 406.381C243.767 401.281 243.567 396.281 241.867 391.181C242.667 390.481 243.367 389.881 244.067 389.281C254.367 381.981 263.767 373.581 272.967 364.981C273.767 364.281 274.567 363.381 275.167 362.481C276.667 360.181 276.367 357.481 274.567 355.681C272.967 354.081 270.267 353.781 268.067 355.081C266.867 355.781 265.967 356.781 264.867 357.681C258.067 363.581 251.367 369.681 244.367 375.481C240.567 378.581 236.467 381.381 232.267 383.881C227.067 387.081 221.367 389.081 215.267 389.581C207.667 390.181 201.167 387.781 195.967 382.281C191.167 377.281 190.467 371.781 193.867 365.681C195.167 363.481 196.767 361.381 198.567 359.481C201.067 356.881 203.667 354.581 206.367 352.181C210.967 348.281 215.567 344.381 220.167 340.481C234.767 327.981 247.567 313.581 259.667 298.781C260.567 297.681 261.367 296.581 261.967 295.381C262.867 293.581 262.867 291.681 261.767 289.881C260.167 287.281 256.767 286.681 254.267 288.681C253.167 289.481 252.367 290.681 251.467 291.681C240.667 304.781 229.567 317.681 216.767 328.981C212.667 332.581 208.467 336.081 204.267 339.681C199.567 343.681 194.967 347.781 189.967 352.081C184.367 352.281 177.767 351.981 170.967 351.681ZM184.167 153.681C170.467 154.181 158.067 158.981 147.867 169.181C144.067 173.081 141.267 177.481 139.367 182.581C134.467 195.981 139.067 209.581 151.167 217.181C152.967 218.381 154.967 219.281 156.967 220.181C162.167 222.381 167.767 223.381 173.367 223.181C185.967 222.881 197.167 218.781 206.867 210.581C211.967 206.281 215.867 200.981 218.167 194.681C220.067 189.581 220.867 184.381 219.867 178.981C218.167 169.781 212.867 163.081 204.767 158.581C198.567 155.181 191.767 153.881 184.167 153.681ZM234.267 164.381C234.867 164.381 235.567 164.381 236.167 164.281C240.967 163.481 244.567 160.981 246.167 156.181C247.667 151.581 246.467 147.481 243.067 144.181C239.067 140.281 234.267 139.281 228.967 140.781C220.667 143.281 217.967 153.081 223.667 159.681C226.367 162.781 229.867 164.381 234.267 164.381ZM123.567 169.181C115.267 169.281 108.467 177.681 110.267 185.781C111.267 190.181 114.867 193.481 119.367 193.981C127.467 194.981 134.767 187.781 134.667 179.881C134.567 173.781 129.767 169.181 123.567 169.181ZM225.667 133.781C229.267 133.681 233.167 132.181 236.167 128.981C236.867 128.181 237.367 127.181 237.767 126.181C238.067 125.181 237.667 124.281 236.767 123.681C235.867 123.081 234.967 123.081 234.067 123.681C233.567 124.081 233.067 124.581 232.567 125.081C228.867 128.681 224.767 129.181 220.067 127.281C219.367 126.981 218.567 126.581 217.767 126.481C216.767 126.281 215.867 126.681 215.367 127.581C214.767 128.481 214.867 129.481 215.467 130.281C215.967 130.881 216.667 131.481 217.367 131.881C219.667 133.081 222.167 133.781 225.667 133.781ZM112.967 164.681C118.167 164.481 122.267 162.381 125.067 158.081C125.467 157.381 125.867 156.681 126.167 155.881C126.667 154.581 126.167 153.381 125.067 152.681C123.967 151.981 122.667 152.081 121.767 153.181C121.267 153.681 120.967 154.281 120.567 154.881C118.267 158.281 115.067 159.581 111.067 158.781C110.367 158.681 109.767 158.581 109.067 158.481C107.567 158.381 106.567 159.081 106.167 160.281C105.767 161.581 106.367 162.981 107.867 163.581C109.567 164.081 111.267 164.281 112.967 164.681Z" fill="white"/>
<path d="M242.067 437.281C243.067 437.581 244.167 437.881 245.167 438.281C245.267 438.681 245.467 439.081 245.467 439.481C245.867 443.381 245.967 447.381 246.567 451.281C247.267 456.581 249.167 461.581 251.867 466.581C251.267 467.281 250.767 468.081 250.067 468.681C247.867 470.481 245.567 472.281 243.267 473.881C232.567 481.281 221.367 487.881 209.667 493.681C202.167 497.481 194.467 500.581 186.267 502.481C181.067 503.681 175.767 504.181 170.367 503.081C159.567 500.881 153.267 490.781 152.367 483.381C151.967 480.381 152.667 477.681 154.467 475.281C156.267 472.781 158.667 470.881 161.367 469.581C164.167 468.281 167.167 466.981 170.067 465.981C177.467 463.381 184.867 460.981 192.267 458.481C204.067 454.381 215.667 449.881 226.967 444.681C231.967 442.481 236.767 439.881 242.067 437.281Z" fill="white"/>
<path d="M204.067 399.681C206.767 400.181 209.167 400.681 211.767 401.181C211.767 402.081 211.767 402.881 211.667 403.681C210.267 412.181 206.267 419.181 199.567 424.581C188.467 433.481 176.067 439.481 161.667 440.881C151.567 441.881 141.967 440.081 132.767 436.481C125.967 433.781 119.767 429.981 114.067 425.481C105.367 418.781 100.967 409.881 100.367 398.981C100.167 395.581 100.167 392.081 100.267 388.681C100.567 381.181 101.067 373.681 101.467 366.081C101.567 364.481 101.767 362.881 101.967 360.981C111.267 359.781 120.367 359.981 129.567 359.581C138.867 359.181 148.167 359.281 157.467 359.181C176.767 358.981 181.467 359.181 184.767 360.281C184.767 360.581 184.867 360.881 184.767 361.081C184.167 362.581 183.467 364.081 182.667 365.781C181.367 365.781 179.967 365.881 178.667 365.881C164.167 365.881 149.667 365.781 135.067 365.881C129.567 365.881 124.067 366.181 118.667 366.581C111.867 367.081 109.067 369.781 108.667 376.681C108.367 381.581 108.567 386.581 108.667 391.481C108.767 396.281 108.967 401.081 109.167 405.881C109.267 407.481 109.367 409.181 109.667 410.781C110.267 413.881 112.267 415.881 115.267 416.681C117.267 417.181 119.267 417.581 121.367 417.581C129.467 417.781 137.567 417.781 145.567 417.881C152.667 417.881 159.767 417.881 166.967 417.881C175.067 417.881 183.167 417.781 191.167 417.581C192.767 417.581 194.467 417.281 196.067 416.881C200.567 415.881 202.567 413.581 202.967 408.881C203.167 406.581 203.167 404.181 203.267 401.881C203.467 401.081 203.867 400.381 204.067 399.681Z" fill="white"/>
<path d="M181.467 371.481C181.467 383.781 188.067 391.381 197.867 397.181C198.167 400.981 198.067 404.781 197.567 408.481C197.367 410.281 196.367 411.181 194.767 411.481C193.567 411.681 192.367 411.781 191.067 411.881C180.367 412.281 169.767 412.581 159.067 412.181C157.067 412.081 154.967 412.181 152.867 412.181C142.567 412.081 132.367 411.981 122.067 411.881C120.667 411.881 119.367 411.781 117.967 411.481C115.867 411.081 115.167 410.381 114.867 408.281C114.767 407.481 114.667 406.681 114.667 405.781C114.467 396.881 114.267 387.981 114.067 379.081C114.067 377.681 114.167 376.381 114.367 374.981C114.667 373.281 115.567 372.281 117.367 372.081C120.067 371.781 122.767 371.381 125.567 371.381C136.067 371.281 146.667 371.181 157.167 371.181C163.867 371.181 170.567 371.181 177.267 371.181C178.567 371.281 179.767 371.381 181.467 371.481ZM155.967 372.881C150.667 372.881 146.367 375.781 144.467 380.581C144.267 381.081 144.067 381.581 143.967 382.181C143.667 384.081 144.667 385.881 146.367 386.481C147.967 387.081 149.467 386.481 150.567 384.781C150.967 384.081 151.267 383.281 151.667 382.581C153.067 380.381 155.767 379.581 158.167 380.681C160.667 381.781 161.167 384.481 159.067 386.281C158.067 387.181 156.867 387.881 155.867 388.781C153.967 390.381 152.867 392.281 152.767 394.781C152.667 396.881 153.767 398.381 155.567 398.781C157.167 399.181 158.867 398.481 159.567 396.681C160.267 394.881 161.467 393.781 162.967 392.681C163.767 392.181 164.467 391.481 165.067 390.781C168.867 386.581 168.767 380.381 164.767 376.381C162.467 374.081 159.467 372.881 155.967 372.881ZM159.567 405.681C159.667 403.481 158.067 401.781 155.867 401.581C153.567 401.381 151.867 402.881 151.767 405.181C151.667 407.381 153.267 409.081 155.367 409.281C157.767 409.381 159.567 407.881 159.567 405.681Z" fill="white"/>
<path d="M111.667 460.381C104.367 462.381 97.367 464.281 90.167 465.181C86.467 465.581 82.767 465.881 79.167 465.881C72.067 465.781 65.767 463.481 60.367 458.881C57.767 456.681 55.567 453.981 54.067 450.881C53.467 449.581 52.867 448.081 52.567 446.681C51.167 439.881 53.467 434.781 59.567 431.581C62.367 430.081 65.367 429.081 68.367 428.181C75.767 426.181 83.167 424.381 90.567 422.481C93.367 421.781 96.067 420.981 99.067 420.181C100.867 422.281 102.567 424.581 104.567 426.581C106.467 428.481 108.567 430.281 110.667 431.981C112.867 433.781 115.267 435.281 117.767 437.081C114.667 444.481 112.667 452.181 111.667 460.381Z" fill="white"/>
<path d="M194.467 313.581C194.767 317.581 193.167 320.581 189.567 322.281C187.267 323.381 184.867 324.581 182.367 325.281C169.367 329.181 156.467 333.181 143.367 336.781C135.167 339.081 126.967 340.981 118.667 342.981C116.667 343.481 114.667 343.881 112.567 344.081C111.267 344.181 109.867 344.181 108.467 343.981C106.367 343.681 104.567 342.581 103.467 340.681C102.567 339.181 101.667 337.581 100.967 335.981C97.867 328.981 95.167 321.781 92.967 314.381C92.367 312.481 92.067 310.381 91.867 308.381C91.567 305.081 92.967 302.481 95.767 300.781C97.667 299.681 99.567 298.581 101.667 297.881C106.567 296.181 111.567 294.581 116.467 293.081C133.367 287.881 150.367 283.281 167.567 279.081C170.467 278.381 173.467 277.881 176.467 277.381C177.567 277.181 178.667 277.081 179.767 277.081C183.667 277.181 186.567 278.981 188.167 282.581C188.667 283.881 189.267 285.081 189.567 286.481C191.767 294.981 193.467 303.581 194.367 312.281C194.467 312.681 194.467 313.081 194.467 313.581ZM100.767 311.081C101.067 312.981 101.267 314.881 101.667 316.681C103.067 322.181 105.067 327.381 107.267 332.481C107.567 333.281 107.967 333.981 108.367 334.681C109.467 336.381 110.967 337.481 112.867 337.981C114.767 338.481 116.667 338.381 118.567 338.081C125.767 337.081 132.767 335.281 139.867 333.581C152.467 330.381 164.967 326.781 177.067 322.181C178.967 321.481 180.867 320.581 182.667 319.581C186.067 317.681 187.767 314.681 187.067 310.681C186.167 305.581 185.267 300.481 184.067 295.381C183.467 292.981 182.467 290.681 181.367 288.581C179.667 285.181 176.667 283.781 172.867 284.081C171.267 284.181 169.567 284.481 168.067 284.881C148.767 289.581 129.667 294.981 110.767 300.781C109.167 301.281 107.667 301.781 106.167 302.481C102.567 304.181 100.767 306.981 100.767 311.081Z" fill="white"/>
<path d="M129.367 87.581C126.367 91.281 123.567 94.581 120.767 97.981C120.367 98.481 119.767 98.881 119.167 99.181C113.667 102.781 108.567 106.881 103.967 111.581C103.767 111.781 103.567 111.881 103.067 112.181C102.567 111.681 101.967 111.181 101.567 110.581C95.9671 101.581 91.167 92.281 87.767 82.281C86.967 79.881 86.467 77.281 85.967 74.781C85.467 72.181 85.867 69.581 86.667 67.081C88.467 61.681 93.567 58.481 99.167 59.681C101.367 60.181 103.567 61.081 105.567 62.181C107.667 63.381 109.667 64.881 111.567 66.481C117.767 71.781 122.967 77.781 127.567 84.481C128.167 85.481 128.667 86.481 129.367 87.581Z" fill="white"/>
<path d="M27.367 226.881C30.567 226.081 33.567 227.181 36.667 227.981C38.067 228.381 38.567 229.581 38.467 230.881C38.267 233.381 38.067 235.781 37.667 238.181C35.567 250.981 32.767 263.681 29.567 276.281C29.267 277.681 28.667 278.781 27.567 279.781C26.767 280.481 26.067 281.381 25.467 282.281C23.367 285.581 23.767 288.881 26.567 291.581C27.867 292.781 29.467 293.681 30.067 295.481C28.167 296.081 27.767 296.081 25.067 295.581C23.467 295.281 21.867 295.081 20.267 294.781C18.567 294.481 16.767 294.181 15.067 293.781C13.467 293.381 11.767 293.581 10.367 291.981C10.767 291.581 11.067 290.881 11.567 290.681C12.567 290.381 13.767 290.381 14.767 290.081C19.067 288.981 21.267 285.281 20.167 280.981C19.967 280.281 19.867 279.581 19.567 279.081C18.267 277.081 18.467 274.981 18.867 272.781C19.867 265.981 20.567 259.181 21.667 252.481C22.667 246.281 23.867 240.081 25.067 233.881C25.267 231.481 25.667 228.981 27.367 226.881ZM35.767 234.281C35.767 234.181 35.867 233.681 35.867 233.081C35.867 231.981 35.267 231.081 34.367 230.881C33.367 230.681 32.467 231.381 32.167 232.781C32.067 233.081 32.067 233.281 32.067 233.581C30.467 245.381 28.267 256.981 25.567 268.581C25.367 269.381 25.267 270.181 25.167 270.981C25.067 271.881 25.367 272.581 26.267 272.881C27.167 273.181 28.067 272.581 28.467 271.581C28.767 270.781 28.967 269.981 29.167 269.181C31.967 257.881 34.067 246.381 35.767 234.281ZM19.767 272.781C19.767 274.181 20.367 275.081 21.267 275.181C22.267 275.281 22.767 274.681 23.067 273.881C23.367 272.981 23.567 272.081 23.767 271.081C25.667 260.281 27.567 249.581 29.367 238.781C29.467 238.081 29.667 237.381 29.467 236.781C29.267 236.181 28.767 235.481 28.267 235.381C27.767 235.281 26.767 235.681 26.567 236.181C26.067 237.381 25.667 238.781 25.467 240.081C23.567 250.581 21.767 261.081 19.967 271.581C19.867 271.981 19.767 272.581 19.767 272.781Z" fill="white"/>
<path d="M126.167 475.481C127.067 479.381 126.767 485.081 125.467 489.381C124.567 490.281 123.267 490.381 122.067 490.381C114.167 490.681 106.267 490.981 98.367 491.281C97.667 491.281 97.067 491.081 96.467 490.981C95.367 487.481 95.067 480.081 95.967 475.581C97.067 475.381 98.267 475.081 99.367 475.081C107.567 474.981 115.767 475.081 123.967 475.081C124.667 475.081 125.467 475.381 126.167 475.481Z" fill="white"/>
<path d="M16.667 301.681C18.367 301.481 19.767 301.781 21.367 302.481C21.267 303.481 21.367 304.381 21.167 305.281C19.167 316.281 17.267 327.381 15.167 338.381C14.867 340.081 14.867 341.681 15.367 343.281C16.767 347.781 15.367 351.581 11.867 355.081C10.367 354.781 8.66702 354.481 6.96702 354.181C6.76702 353.481 6.46702 352.981 6.36702 352.481C5.06702 347.181 4.96703 347.181 7.76703 342.481C8.96703 340.481 9.76702 338.381 10.167 335.981C11.967 325.781 13.967 315.581 15.867 305.281C16.067 304.181 16.367 302.981 16.667 301.681Z" fill="white"/>
<path d="M214.967 437.881C210.367 440.581 194.767 446.481 191.067 446.881C190.667 444.081 191.367 441.481 192.267 438.981C192.567 438.181 193.567 437.681 194.267 437.081C197.767 434.481 201.567 432.181 204.867 429.481C211.767 423.681 216.267 416.281 218.267 407.481C218.667 405.681 218.967 403.781 219.467 401.481C220.667 402.781 220.967 403.881 221.067 404.981C221.167 406.181 221.267 407.481 221.167 408.681C221.067 409.281 220.667 409.981 220.267 410.481C214.867 416.881 213.767 424.381 214.267 432.381C214.467 434.181 214.767 435.981 214.967 437.881Z" fill="white"/>
<path d="M246.967 429.481C246.567 428.481 246.167 427.281 245.667 426.181C244.767 424.181 243.467 422.381 241.567 421.181C237.267 418.281 231.567 419.381 228.467 423.681C227.067 425.681 226.467 427.881 226.267 430.181C226.167 431.281 226.167 432.381 226.067 433.681C224.967 434.381 223.667 434.781 222.067 434.681C221.867 433.981 221.467 433.181 221.367 432.481C220.867 428.181 221.367 423.981 222.867 419.981C224.367 415.981 227.067 412.981 231.367 411.681C234.067 410.881 236.567 411.281 238.967 412.281C243.367 414.081 246.567 417.181 248.167 421.681C248.967 423.881 249.467 426.081 249.967 428.081C249.167 429.381 248.367 429.781 246.967 429.481Z" fill="white"/>
<path d="M33.967 341.481C34.967 341.281 35.967 341.081 37.267 340.781C37.767 342.181 38.267 343.481 38.767 344.681C39.467 346.481 40.467 348.081 41.967 349.381C45.267 352.181 50.267 352.081 53.567 348.981C55.467 347.281 56.567 345.081 56.867 342.581C57.067 340.581 57.167 338.481 57.267 336.481C58.367 335.581 59.567 335.281 60.967 335.581C62.167 339.581 62.267 346.381 61.067 349.781C59.667 354.181 56.267 356.381 52.167 357.481C45.767 359.081 38.967 356.781 36.067 349.581C35.167 347.481 34.567 345.181 33.867 342.981C33.767 342.481 33.867 342.081 33.967 341.481Z" fill="white"/>
<path d="M145.667 343.881C150.667 341.881 155.567 340.881 160.367 339.581C161.767 340.181 161.767 341.581 162.067 342.681C162.867 345.481 163.367 348.181 162.967 351.081C160.167 351.781 154.967 351.981 147.967 351.481C147.267 349.181 146.567 346.781 145.667 343.881Z" fill="white"/>
<path d="M149.367 447.781C156.067 448.881 161.967 448.081 168.067 447.181C168.967 449.981 167.567 452.381 167.867 454.681C167.367 455.081 167.267 455.381 166.967 455.481C162.067 457.581 161.667 457.481 157.067 454.781C153.767 452.781 151.667 450.881 149.367 447.781Z" fill="white"/>
<path d="M228.467 404.481C228.067 402.881 227.667 401.381 227.267 399.781C230.167 397.681 232.867 396.281 236.567 396.981C236.867 398.681 237.167 400.281 237.367 401.881C237.467 402.481 237.367 403.181 237.267 404.081C234.267 404.181 231.467 404.281 228.467 404.481Z" fill="white"/>
<path d="M66.967 371.981C68.267 372.981 69.467 373.881 70.767 374.981C69.567 378.281 67.767 380.781 64.867 382.781C63.967 382.081 63.067 381.481 62.267 380.781C61.467 380.081 60.767 379.181 59.967 378.381C60.767 376.781 62.467 376.281 63.567 375.081C64.667 374.081 65.767 373.081 66.967 371.981Z" fill="white"/>
<path d="M81.867 379.181C81.167 382.681 80.467 385.681 79.167 388.681C76.367 388.981 74.067 388.081 71.867 386.781C73.767 383.981 75.567 381.281 77.567 378.281C78.867 377.881 80.167 378.781 81.867 379.181Z" fill="white"/>
<path d="M62.067 366.181C60.267 368.581 58.467 370.681 55.367 371.781C54.767 370.781 54.067 369.781 53.467 368.781C52.867 367.681 52.367 366.581 51.767 365.281C52.367 364.881 52.867 364.481 53.467 364.281C55.367 363.581 57.367 362.981 59.367 362.281C60.767 363.181 61.267 364.681 62.067 366.181Z" fill="white"/>
<path d="M92.767 389.381C89.867 390.281 89.867 390.281 86.967 389.681C87.267 386.481 88.367 383.381 89.267 380.081C90.367 379.981 91.467 379.881 92.767 379.681C93.467 383.081 92.867 386.181 92.767 389.381Z" fill="white"/>
<path d="M122.367 446.081C122.467 444.081 123.467 442.581 124.067 440.781C125.667 440.881 126.767 441.781 128.067 442.281C129.167 442.781 130.267 443.281 131.367 443.781C131.967 445.381 130.967 446.481 130.467 447.881C127.467 447.981 124.767 447.481 122.367 446.081Z" fill="white"/>
<path d="M138.267 345.581C139.267 347.781 140.167 349.481 139.967 351.581C137.367 351.981 134.767 352.081 132.167 351.881C130.867 350.381 131.067 348.881 131.667 347.081C133.767 346.581 135.867 346.081 138.267 345.581Z" fill="white"/>
<path d="M126.667 464.281C127.267 465.681 126.867 466.781 126.467 468.181C123.967 467.981 121.567 467.781 119.067 467.681C118.567 466.081 118.467 464.781 119.167 463.381C121.667 463.481 124.267 463.481 126.667 464.281Z" fill="white"/>
<path d="M176.167 447.681C175.867 446.181 176.267 445.381 177.267 444.981C179.267 444.181 181.267 443.581 183.267 442.881C184.167 444.281 183.667 445.381 183.267 446.781C181.167 447.381 178.867 447.981 176.167 447.681Z" fill="white"/>
<path d="M125.567 456.881C124.367 456.681 122.467 456.381 120.667 455.881C120.367 455.781 119.967 454.981 120.067 454.581C120.067 454.281 120.767 453.681 121.067 453.681C123.067 453.981 125.067 454.381 127.067 454.881C127.467 454.981 127.867 455.481 128.167 455.881C128.367 456.381 127.667 456.881 126.767 456.881C126.567 456.881 126.367 456.881 125.567 456.881Z" fill="white"/>
<path d="M234.267 428.381C234.367 427.881 234.267 427.781 234.367 427.681C234.867 427.081 235.467 426.481 236.367 426.781C236.467 426.781 236.567 426.981 236.567 426.981C236.067 427.381 235.667 427.881 235.167 428.281C235.067 428.381 234.767 428.381 234.267 428.381Z" fill="white"/>
<path d="M184.167 153.681C191.767 153.881 198.567 155.181 204.867 158.681C212.967 163.181 218.267 169.781 219.967 179.081C220.967 184.481 220.267 189.681 218.267 194.781C215.867 201.081 211.967 206.281 206.967 210.681C197.367 218.981 186.067 222.981 173.467 223.281C167.867 223.381 162.267 222.481 157.067 220.281C155.067 219.481 153.067 218.481 151.267 217.281C139.167 209.681 134.567 196.081 139.467 182.681C141.367 177.581 144.167 173.081 147.967 169.281C158.067 158.981 170.467 154.181 184.167 153.681ZM173.767 214.181C175.367 213.981 177.367 213.881 179.367 213.581C188.667 212.081 196.867 208.181 203.467 201.381C206.367 198.381 208.567 194.981 209.967 190.981C213.167 181.781 210.267 172.881 202.167 167.681C199.867 166.181 197.367 165.081 194.767 164.281C180.467 159.981 163.467 165.681 154.167 175.881C151.367 178.981 149.067 182.281 147.767 186.281C144.867 195.181 147.667 203.681 155.367 208.981C157.167 210.181 159.167 211.081 161.167 211.981C165.067 213.581 169.167 213.981 173.767 214.181Z" fill="black"/>
<path d="M234.267 164.381C229.967 164.381 226.367 162.781 223.667 159.681C217.967 153.181 220.767 143.281 228.967 140.781C234.167 139.181 239.067 140.181 243.067 144.181C246.467 147.481 247.667 151.581 246.167 156.181C244.667 160.981 241.067 163.381 236.167 164.281C235.467 164.381 234.767 164.281 234.267 164.381Z" fill="black"/>
<path d="M123.567 169.181C129.767 169.081 134.567 173.681 134.667 179.981C134.767 187.881 127.567 195.081 119.367 194.081C114.867 193.481 111.167 190.281 110.267 185.881C108.467 177.781 115.267 169.281 123.567 169.181Z" fill="black"/>
<path d="M225.667 133.781C222.167 133.781 219.667 133.081 217.367 131.881C216.667 131.481 215.967 130.981 215.467 130.281C214.867 129.481 214.767 128.481 215.367 127.581C215.967 126.681 216.767 126.281 217.767 126.481C218.567 126.581 219.267 126.981 220.067 127.281C224.667 129.281 228.867 128.681 232.567 125.081C233.067 124.581 233.567 124.081 234.067 123.681C234.967 123.081 235.867 122.981 236.767 123.681C237.667 124.281 238.067 125.181 237.767 126.181C237.467 127.181 236.867 128.181 236.167 128.981C233.167 132.181 229.267 133.681 225.667 133.781Z" fill="black"/>
<path d="M112.967 164.681C111.267 164.281 109.467 164.081 107.867 163.481C106.367 162.981 105.767 161.481 106.167 160.181C106.567 158.981 107.567 158.381 109.067 158.381C109.767 158.381 110.467 158.581 111.067 158.681C115.067 159.481 118.267 158.181 120.567 154.781C120.967 154.181 121.267 153.581 121.767 153.081C122.667 152.081 124.067 151.881 125.067 152.581C126.167 153.381 126.567 154.481 126.167 155.781C125.867 156.581 125.567 157.281 125.067 157.981C122.267 162.381 118.267 164.481 112.967 164.681Z" fill="black"/>
<path d="M155.967 372.881C159.467 372.881 162.367 374.081 164.867 376.481C168.867 380.481 168.967 386.781 165.167 390.881C164.567 391.581 163.767 392.281 163.067 392.781C161.567 393.781 160.367 394.981 159.667 396.781C158.967 398.581 157.367 399.281 155.667 398.881C153.867 398.481 152.767 396.981 152.867 394.881C152.967 392.381 154.067 390.481 155.967 388.881C157.067 387.981 158.167 387.281 159.167 386.381C161.167 384.481 160.667 381.881 158.267 380.781C155.867 379.681 153.267 380.381 151.767 382.681C151.367 383.381 151.067 384.181 150.667 384.881C149.567 386.581 148.067 387.081 146.467 386.581C144.767 385.981 143.767 384.281 144.067 382.281C144.167 381.781 144.367 381.181 144.567 380.681C146.467 375.781 150.767 372.881 155.967 372.881Z" fill="black"/>
<path d="M159.567 405.681C159.467 407.881 157.767 409.381 155.467 409.281C153.267 409.181 151.767 407.481 151.867 405.181C151.967 402.981 153.667 401.481 155.967 401.581C158.167 401.781 159.667 403.581 159.567 405.681Z" fill="black"/>
<path d="M100.767 311.081C100.767 306.981 102.667 304.281 106.167 302.581C107.667 301.881 109.167 301.281 110.767 300.881C129.767 295.081 148.767 289.681 168.067 284.981C169.667 284.581 171.267 284.281 172.867 284.181C176.667 283.881 179.667 285.281 181.367 288.681C182.467 290.881 183.467 293.181 184.067 295.481C185.267 300.581 186.167 305.681 187.067 310.781C187.767 314.781 186.167 317.781 182.667 319.681C180.867 320.681 178.967 321.581 177.067 322.281C164.867 326.881 152.467 330.581 139.867 333.681C132.867 335.481 125.767 337.281 118.567 338.181C116.667 338.481 114.767 338.481 112.867 338.081C110.867 337.581 109.367 336.581 108.367 334.781C107.967 334.081 107.567 333.381 107.267 332.581C105.067 327.481 102.967 322.181 101.667 316.781C101.267 314.881 101.067 312.881 100.767 311.081ZM116.367 332.981C119.067 332.481 121.767 332.281 124.467 331.581C134.167 329.181 143.867 326.981 153.467 324.281C160.667 322.281 167.767 319.681 174.867 317.281C176.367 316.781 177.867 315.981 179.367 315.281C181.267 314.381 181.867 312.981 181.567 310.981C180.767 305.481 179.767 299.881 178.067 294.581C177.767 293.581 177.267 292.581 176.667 291.581C175.767 289.981 174.467 289.181 172.567 289.481C171.267 289.681 169.867 289.981 168.567 290.281C149.767 295.081 131.067 300.181 112.467 305.881C111.067 306.281 109.667 306.881 108.267 307.481C106.767 308.181 106.067 309.481 106.167 311.181C106.167 312.181 106.367 313.081 106.567 313.981C107.767 319.781 109.967 325.181 112.267 330.581C113.167 332.381 114.567 332.981 116.367 332.981Z" fill="black"/>
<path d="M35.767 234.281C34.067 246.381 31.967 257.881 29.267 269.381C29.067 270.181 28.867 270.981 28.567 271.781C28.167 272.781 27.267 273.381 26.367 273.081C25.367 272.781 25.167 271.981 25.267 271.181C25.267 270.381 25.467 269.581 25.667 268.781C28.467 257.181 30.567 245.581 32.167 233.781C32.167 233.481 32.267 233.281 32.267 232.981C32.567 231.581 33.467 230.881 34.467 231.081C35.367 231.281 35.967 232.181 35.967 233.281C35.867 233.681 35.767 234.181 35.767 234.281Z" fill="black"/>
<path d="M19.767 272.781C19.767 272.481 19.867 271.981 19.967 271.481C21.767 260.981 23.567 250.481 25.467 239.981C25.667 238.681 26.067 237.281 26.567 236.081C26.767 235.681 27.767 235.181 28.267 235.281C28.767 235.381 29.367 236.081 29.467 236.681C29.667 237.281 29.467 238.081 29.367 238.681C27.467 249.481 25.667 260.181 23.767 270.981C23.567 271.881 23.367 272.881 23.067 273.781C22.767 274.581 22.167 275.181 21.267 275.081C20.367 275.081 19.767 274.281 19.767 272.781Z" fill="black"/>
<path d="M173.767 214.181C169.167 213.981 165.067 213.581 161.267 211.981C159.267 211.181 157.267 210.181 155.467 208.981C147.667 203.781 144.867 195.181 147.867 186.281C149.167 182.281 151.467 178.881 154.267 175.881C163.467 165.681 180.467 159.981 194.867 164.281C197.467 165.081 199.967 166.181 202.267 167.681C210.467 172.881 213.367 181.781 210.067 190.981C208.667 194.881 206.467 198.381 203.567 201.381C196.967 208.181 188.867 212.181 179.467 213.581C177.367 213.881 175.267 214.081 173.767 214.181ZM178.267 186.981C179.067 186.081 179.867 185.381 180.567 184.581C182.167 182.581 182.267 180.281 180.967 178.581C179.467 176.681 177.067 176.481 174.667 177.881C174.067 178.281 173.567 178.681 173.067 179.081C171.967 180.081 170.867 180.481 169.367 180.081C168.467 179.781 167.467 179.781 166.567 179.881C164.267 179.981 162.567 181.481 162.167 183.481C161.767 185.481 162.867 187.481 164.967 188.381C166.067 188.881 167.267 189.081 168.567 189.481C168.767 190.481 169.067 191.581 169.267 192.581C170.067 195.781 172.267 196.981 175.467 196.281C178.567 195.581 179.867 193.281 179.167 190.081C178.967 189.081 178.567 188.081 178.267 186.981Z" fill="white"/>
<path d="M116.367 332.981C114.567 332.981 113.167 332.481 112.367 330.681C110.067 325.281 107.867 319.781 106.667 314.081C106.467 313.181 106.367 312.181 106.267 311.281C106.167 309.581 106.867 308.281 108.367 307.581C109.767 306.981 111.167 306.381 112.567 305.981C131.167 300.281 149.867 295.081 168.667 290.381C169.967 290.081 171.367 289.781 172.667 289.581C174.467 289.281 175.867 289.981 176.767 291.681C177.267 292.681 177.767 293.581 178.167 294.681C179.867 300.081 180.767 305.581 181.667 311.081C181.967 313.081 181.267 314.581 179.467 315.381C177.967 316.081 176.467 316.781 174.967 317.381C167.867 319.781 160.767 322.381 153.567 324.381C143.967 327.081 134.267 329.381 124.567 331.681C121.867 332.181 119.067 332.481 116.367 332.981ZM123.067 312.481C121.967 312.081 121.067 311.781 120.267 311.381C119.267 310.981 118.267 310.381 117.267 310.081C115.067 309.281 113.267 309.981 112.367 311.781C111.467 313.481 112.167 315.281 114.167 316.581C115.067 317.181 116.167 317.581 117.067 318.081C117.867 318.481 118.667 319.081 119.567 319.581C119.167 320.681 118.767 321.481 118.367 322.381C117.967 323.381 117.367 324.381 117.067 325.381C116.467 327.281 117.167 329.081 118.767 329.881C120.367 330.681 122.267 330.181 123.367 328.481C123.967 327.581 124.367 326.581 124.967 325.581C125.467 324.681 126.067 323.781 126.667 322.781C127.967 323.381 129.067 323.881 130.167 324.381C131.167 324.881 132.167 325.381 133.167 325.681C135.067 326.281 136.867 325.581 137.767 323.981C138.567 322.381 138.067 320.481 136.467 319.281C135.567 318.681 134.567 318.181 133.567 317.681C132.367 317.081 131.167 316.381 129.867 315.681C130.567 314.081 131.267 312.781 131.767 311.381C132.167 310.481 132.567 309.581 132.667 308.681C132.967 307.081 132.167 305.581 130.767 304.881C129.467 304.181 127.767 304.481 126.667 305.681C125.967 306.481 125.467 307.481 124.967 308.481C124.367 309.981 123.767 311.181 123.067 312.481ZM163.267 300.981C161.367 300.181 159.967 299.481 158.467 298.881C156.067 297.881 154.067 298.581 153.167 300.381C152.267 302.181 153.067 304.081 155.367 305.481C156.067 305.881 156.867 306.181 157.567 306.581C158.267 306.981 158.967 307.381 159.767 307.881C159.567 308.681 159.367 309.281 159.167 309.881C158.667 311.181 157.967 312.381 157.467 313.581C156.767 315.481 157.467 317.181 159.167 318.081C160.767 318.981 162.567 318.481 163.767 316.781C164.467 315.781 164.867 314.581 165.567 313.581C166.067 312.781 166.567 312.081 167.167 311.281C168.767 311.981 170.067 312.681 171.467 313.281C172.367 313.681 173.167 314.081 174.067 314.381C175.767 314.881 177.567 314.181 178.267 312.781C179.067 311.281 178.767 309.381 177.367 308.381C176.367 307.681 175.267 307.181 174.167 306.581C172.967 305.781 171.367 305.581 170.267 304.181C170.967 302.581 171.767 301.081 172.467 299.381C173.467 296.981 172.967 294.881 171.367 293.881C169.467 292.781 167.367 293.581 165.967 296.081C165.067 297.381 164.367 298.981 163.267 300.981ZM149.567 315.181C147.967 315.681 145.567 316.281 143.267 317.081C141.567 317.781 140.767 319.381 141.067 320.981C141.467 322.781 142.967 324.081 144.967 323.781C147.367 323.381 149.767 322.681 151.967 321.881C153.667 321.281 154.267 319.481 153.967 317.881C153.567 316.181 152.067 315.181 149.567 315.181Z" fill="white"/>
<path d="M178.267 186.981C178.567 188.081 178.967 189.081 179.167 190.181C179.867 193.381 178.567 195.681 175.467 196.381C172.267 197.081 170.167 195.881 169.267 192.681C168.967 191.681 168.767 190.581 168.567 189.581C167.267 189.181 166.067 188.981 164.967 188.481C162.867 187.581 161.767 185.581 162.167 183.581C162.567 181.581 164.267 180.081 166.567 179.981C167.467 179.981 168.467 179.981 169.367 180.181C170.867 180.581 171.967 180.181 173.067 179.181C173.567 178.681 174.067 178.281 174.667 177.981C177.067 176.481 179.367 176.781 180.967 178.681C182.367 180.381 182.267 182.681 180.567 184.681C179.867 185.381 179.067 186.181 178.267 186.981Z" fill="black"/>
<path d="M123.067 312.481C123.767 311.181 124.367 309.981 125.067 308.781C125.567 307.881 126.067 306.881 126.767 305.981C127.867 304.681 129.567 304.481 130.867 305.181C132.167 305.881 133.067 307.381 132.767 308.981C132.567 309.881 132.167 310.781 131.867 311.681C131.267 313.081 130.667 314.381 129.967 315.981C131.267 316.681 132.467 317.281 133.667 317.981C134.667 318.481 135.667 318.881 136.567 319.581C138.267 320.781 138.767 322.681 137.867 324.281C137.067 325.881 135.167 326.581 133.267 325.981C132.267 325.581 131.267 325.081 130.267 324.681C129.167 324.181 128.067 323.681 126.767 323.081C126.167 324.081 125.567 324.981 125.067 325.881C124.567 326.781 124.167 327.881 123.467 328.781C122.267 330.481 120.367 330.981 118.867 330.181C117.267 329.381 116.567 327.581 117.167 325.681C117.467 324.681 118.067 323.681 118.467 322.681C118.867 321.781 119.167 320.981 119.667 319.881C118.767 319.281 117.967 318.781 117.167 318.381C116.167 317.881 115.167 317.481 114.267 316.881C112.267 315.581 111.567 313.781 112.467 312.081C113.367 310.281 115.167 309.581 117.367 310.381C118.367 310.781 119.367 311.281 120.367 311.681C121.067 311.781 121.967 312.081 123.067 312.481Z" fill="black"/>
<path d="M163.267 300.981C164.267 298.981 165.067 297.381 165.967 295.881C167.367 293.381 169.467 292.581 171.367 293.681C173.067 294.581 173.467 296.681 172.467 299.181C171.767 300.781 170.967 302.381 170.267 303.981C171.267 305.381 172.867 305.681 174.167 306.381C175.167 306.981 176.367 307.481 177.367 308.181C178.767 309.281 179.067 311.181 178.267 312.581C177.467 313.981 175.767 314.781 174.067 314.181C173.167 313.881 172.267 313.481 171.467 313.081C170.067 312.481 168.767 311.881 167.167 311.081C166.567 311.881 166.067 312.681 165.567 313.381C164.967 314.481 164.467 315.581 163.767 316.581C162.567 318.281 160.667 318.781 159.167 317.881C157.467 316.981 156.867 315.281 157.467 313.381C157.867 312.081 158.567 310.881 159.167 309.681C159.467 309.081 159.567 308.381 159.767 307.681C158.967 307.181 158.267 306.781 157.567 306.381C156.867 305.981 156.067 305.681 155.367 305.281C153.067 303.981 152.267 302.081 153.167 300.181C154.067 298.281 156.067 297.681 158.467 298.681C159.967 299.481 161.467 300.181 163.267 300.981Z" fill="black"/>
<path d="M149.567 315.181C152.167 315.181 153.567 316.181 153.967 317.781C154.367 319.481 153.667 321.181 151.967 321.781C149.667 322.581 147.367 323.281 144.967 323.681C142.967 323.981 141.467 322.681 141.067 320.881C140.767 319.281 141.567 317.581 143.267 316.981C145.467 316.181 147.867 315.681 149.567 315.181Z" fill="black"/>
</svg>
